Coordinates
version=1
nRows=9
nColumns=42
inDegrees=yes

Units are S.I. units (second, meters, Newtons, ...)
If the header above contains a line with 'inDegrees', this indicates whether rotational values are in degrees (yes) or radians (no).

endheader
time	pelvis_tilt	pelvis_list	pelvis_rotation	pelvis_tx	pelvis_ty	pelvis_tz	hip_flexion_r	hip_adduction_r	hip_rotation_r	knee_angle_r	knee_adduction_r	knee_angle_r_beta	ankle_angle_r	subtalar_angle_r	mtp_angle_r	hip_flexion_l	hip_adduction_l	hip_rotation_l	knee_angle_l	knee_adduction_l	knee_angle_l_beta	ankle_angle_l	subtalar_angle_l	mtp_angle_l	lumbar_extension	lumbar_bending	lumbar_rotation	arm_flex_r	arm_add_r	arm_rot_r	elbow_flex_r	pro_sup_r	wrist_flex_r	wrist_dev_r	arm_flex_l	arm_add_l	arm_rot_l	elbow_flex_l	pro_sup_l	wrist_flex_l	wrist_dev_l
      0.40000000	     12.34848100	      2.89246518	      4.16393313	     -0.64554693	      0.92350081	     -0.22349178	    -25.89805627	      6.88665786	    -24.21952094	      1.23338077	     -1.99869802	      0.02152656	     21.89961977	     16.33995460	     -9.01370037	     16.99754138	      5.36218913	    -33.64889792	     16.37970717	     -9.40100094	      0.28587982	     16.92899464	     36.90994048	     -9.01370037	    -43.13530726	      0.04860499	      0.45468857	      4.81313314	    -12.17674028	      5.44756742	     40.75330452	     90.00000001	      0.00000000	      0.00000000	     -4.85393039	    -10.00307329	     16.59181581	     46.04878815	     90.00000001	      0.00000000	      0.00000000
      0.41000000	     12.42587509	      2.71007997	      4.13604033	     -0.63857287	      0.92179304	     -0.22390114	    -26.58763521	      7.02900713	    -24.24865052	      1.13472102	     -1.85183819	      0.01980462	     22.14159880	     16.47257667	     -9.00447553	     17.10077593	      5.38578955	    -33.41822744	     16.74985388	     -9.67454991	      0.29234010	     16.91712724	     36.84051865	     -9.00447553	    -43.10797278	      0.05675374	      0.50007733	      4.64983745	    -12.12239580	      5.52368162	     40.62081371	     90.00000001	      0.00000000	      0.00000000	     -4.89174518	    -10.01214431	     16.68359398	     45.96496096	     90.00000001	      0.00000000	      0.00000000
      0.42000000	     12.49961478	      2.56215067	      3.99055573	     -0.63134291	      0.92017373	     -0.22409130	    -27.19875188	      7.13349672	    -24.26788152	      1.14076911	     -1.85594377	      0.01991018	     22.30969672	     16.54735492	     -8.99966076	     17.09934201	      5.43908984	    -33.10022668	     17.12621756	     -9.95928562	      0.29890888	     16.84219531	     36.72483870	     -8.99966076	    -43.06708631	     -0.07183349	      0.66129759	      4.44226628	    -12.06011392	      5.58395490	     40.47262783	     90.00000001	      0.00000000	      0.00000000	     -4.95455914	    -10.00120002	     16.70258276	     45.89166390	     90.00000001	      0.00000000	      0.00000000
      0.43000000	     12.47173964	      2.32811798	      3.95568257	     -0.62419017	      0.91830943	     -0.22456280	    -27.72516126	      7.31156048	    -24.16194567	      1.09586760	     -1.77803196	      0.01912650	     22.76217418	     17.02952402	     -8.97049351	     17.42696118	      5.30997976	    -32.52781775	     18.15458262	    -10.22062404	      0.31685724	     16.59336010	     35.78378286	     -8.97049351	    -42.89571424	     -0.03024229	      0.70145536	      4.32468539	    -11.98800297	      5.76218697	     40.23877217	     90.00000001	      0.00000000	      0.00000000	     -5.01148632	     -9.99646110	     16.78007712	     45.74465195	     90.00000001	      0.00000000	      0.00000000
      0.44000000	     12.57327196	      2.23481537	      3.70569922	     -0.61671438	      0.91692297	     -0.22475288	    -28.26619644	      7.30241940	    -24.05101253	      1.29594121	     -1.89671579	      0.02261844	     22.88250512	     17.08470520	     -8.96415095	     17.31981606	      5.42786900	    -31.99497135	     18.67408250	    -10.59180454	      0.32592422	     16.36864955	     35.55348220	     -8.96415095	    -42.86573886	     -0.25629963	      0.87276849	      4.10876171	    -11.92858569	      5.80593897	     40.08675816	     90.00000001	      0.00000000	      0.00000000	     -5.06643753	     -9.98649658	     16.76652418	     45.64827167	     90.00000001	      0.00000000	      0.00000000
      0.45000000	     12.50748068	      2.07781815	      3.63119593	     -0.60952177	      0.91541041	     -0.22528089	    -28.66234006	      7.42528335	    -23.65367964	      1.36185340	     -1.99492879	      0.02376883	     23.27190478	     17.32564491	     -8.89346214	     17.47549245	      5.53787265	    -30.37384857	     19.60432728	    -10.67172070	      0.34216006	     15.47985388	     32.71437142	     -8.89346214	    -42.70020183	     -0.31640113	      0.86622823	      4.04646140	    -11.80255603	      5.90607394	     39.72369542	     90.00000001	      0.00000000	      0.00000000	     -5.09652060	     -9.94061854	     16.72231912	     45.35587237	     90.00000001	      0.00000000	      0.00000000
      0.46000000	     12.50407998	      2.02302372	      3.36031179	     -0.60211630	      0.91422479	     -0.22554601	    -28.98117252	      7.34085231	    -23.27975090	      1.73166672	     -2.16160037	      0.03022329	     23.61056860	     17.20149182	     -8.86342303	     17.51495335	      5.64397644	    -29.54884644	     20.43569119	    -10.90831162	      0.35667010	     14.40970568	     31.19597740	     -8.86342303	    -42.59209638	     -0.60080300	      0.98863505	      3.91114393	    -11.68376174	      5.94530999	     39.43120326	     90.00000001	      0.00000000	      0.00000000	     -5.10762561	     -9.90617908	     16.71564416	     45.11753285	     90.00000001	      0.00000000	      0.00000000
      0.47000000	     12.44248577	      2.02492607	      3.19090386	     -0.59497085	      0.91334730	     -0.22611108	    -29.17676846	      7.26899274	    -22.67016232	      2.16808501	     -2.45114527	      0.03784022	     23.65840569	     16.61928656	     -8.78588652	     17.32805454	      6.12197648	    -27.07842041	     20.87898076	    -10.81275058	      0.36440696	     13.35742705	     27.13118526	     -8.78588652	    -42.49088244	     -0.86291240	      0.97441737	      3.86753106	    -11.50626982	      5.86708836	     39.08665046	     90.00000001	      0.00000000	      0.00000000	     -5.08401019	     -9.89030155	     16.66412308	     44.85480632	     90.00000001	      0.00000000	      0.00000000
      0.48000000	     12.48302314	      2.00828755	      2.85081118	     -0.58749937	      0.91276710	     -0.22635526	    -29.31891271	      7.06717308	    -22.28051704	      2.98455851	     -2.70901051	      0.05209037	     23.92025977	     16.33936106	     -8.76372406	     17.25802041	      6.14541523	    -26.51804583	     21.73260543	    -10.93915020	      0.37930552	     12.21662686	     25.81914789	     -8.76372406	    -42.45990820	     -1.21326454	      1.09189923	      3.77248412	    -11.37826384	      5.90846484	     38.77781255	     90.00000001	      0.00000000	      0.00000000	     -5.07173573	     -9.86601166	     16.68412180	     44.57444917	     90.00000001	      0.00000000	      0.00000000
